<svg xmlns="http://www.w3.org/2000/svg" width="100" height="100" viewBox="0 0 100 100">
    <defs>
        <clipPath id="clip-path">
            <path id="Rectangle_7713" data-name="Rectangle 7713" class="cls-1" d="M0 0h44.483v46.112H0z"/>
        </clipPath>
        <style>
            .cls-1{fill:#9ca1b0}
        </style>
    </defs>
    <g id="section6_notion" transform="translate(-1158 -3846)">
        <circle id="Ellipse_65562" data-name="Ellipse 65562" cx="50" cy="50" r="50" transform="translate(1158 3846)" style="fill:#f5f7fd"/>
        <g id="Group_78712" data-name="Group 78712" transform="translate(1186 3873)">
            <g id="Group_78711" data-name="Group 78711" style="clip-path:url(#clip-path)">
                <path id="Path_11372" data-name="Path 11372" class="cls-1" d="M44.47 25.4c0-5.217-.013-10.434.013-15.651a2.171 2.171 0 0 0-.983-1.942q-4.9-3.443-9.8-6.88A5.314 5.314 0 0 0 30.587 0c-1.276 0-2.542.146-3.812.234C22.847.5 18.923.823 15 1.111q-5.915.433-11.833.842C.951 2.109.012 3.115.012 5.337c0 9.109.011 18.218-.012 27.326a5.787 5.787 0 0 0 1.1 3.568c2.19 2.976 4.487 5.872 6.772 8.775a2.957 2.957 0 0 0 2.266 1.088 37.622 37.622 0 0 0 3.919-.147c1.983-.106 3.964-.244 5.946-.362 1.949-.116 3.9-.221 5.846-.339 2.542-.154 5.083-.319 7.624-.477 2.761-.172 5.524-.324 8.283-.519a2.649 2.649 0 0 0 2.562-1.947 4.836 4.836 0 0 0 .153-1.258q-.008-7.826 0-15.652M7.65 8.077c-1.087-.89-2.2-1.746-3.3-2.616-.186-.147-.415-.289-.348-.568a.589.589 0 0 1 .582-.414q1.721-.161 3.445-.29 3.2-.243 6.4-.471 3.122-.227 6.245-.449c2.132-.155 4.263-.334 6.4-.461a26.587 26.587 0 0 1 3.756-.176 4.908 4.908 0 0 1 2.472.95c1.476 1.046 2.938 2.112 4.4 3.172a1.711 1.711 0 0 1 .3.269c.072.085.183.172.134.308s-.191.115-.3.122l-6.453.4q-3.913.239-7.826.469l-7.522.448-5.872.348a3.664 3.664 0 0 1-2.5-1.045m33.759 17.5v13.1c0 .2.007.409-.013.611A1.671 1.671 0 0 1 39.547 41c-2.695.142-5.388.319-8.082.473-2.644.151-5.288.289-7.931.44s-5.287.311-7.93.466c-1.406.083-2.813.168-4.22.241a3.291 3.291 0 0 1-.76-.048 1.472 1.472 0 0 1-1.393-1.432 3.984 3.984 0 0 1-.03-.61v-26.4a3.816 3.816 0 0 1 .074-.809 1.2 1.2 0 0 1 1.169-1.073c2.253-.148 4.506-.278 6.76-.412q3.126-.186 6.252-.368 3-.175 6-.347l6.3-.37c1.356-.08 2.713-.145 4.067-.244 1.238-.09 1.515.622 1.583 1.51.022.287 0 .577 0 .866v12.691"/>
                <path id="Path_11373" data-name="Path 11373" class="cls-1" d="M160.386 151.138c-2.016.12-4.033.232-6.049.36a1.563 1.563 0 0 0-1.419 1.365c-.039.318.067.457.411.474.506.025 1.01.154 1.515.157.445 0 .461.22.461.563q-.013 5.557-.005 11.113v.577c-.126.03-.142-.044-.177-.1q-1.519-2.313-3.04-4.624l-5.774-8.776c-.11-.167-.187-.327-.461-.306-2.166.166-4.334.3-6.5.467a1.586 1.586 0 0 0-1.486 1.684c0 .221.025.376.33.374.473 0 .946.08 1.421.1.4.014.56.125.558.591-.023 5.2-.013 10.4-.016 15.6 0 .507.158 1.14-.084 1.485-.22.314-.879.346-1.356.448a1.09 1.09 0 0 0-.882.985c-.058.309-.009.5.414.476 2.05-.129 4.1-.208 6.152-.341a1.924 1.924 0 0 0 1.9-1.2c.129-.335.028-.446-.283-.509-.7-.139-1.389-.293-2.083-.442-.229-.049-.367-.127-.366-.426.013-4.279.009-8.558.009-12.984.137.181.2.255.253.337 2.25 3.518 4.49 7.043 6.754 10.553a38.227 38.227 0 0 0 2.4 3.581 2.852 2.852 0 0 0 2.894 1.045 9.625 9.625 0 0 0 2.112-.688.688.688 0 0 0 .487-.752c-.019-6-.013-12-.013-18 0-1.195 0-1.195 1.137-1.453.05-.011.1-.033.146-.044a1.165 1.165 0 0 0 .912-1.563c-.055-.176-.151-.139-.268-.132" transform="translate(-123.726 -135.683)"/>
            </g>
        </g>
    </g>
</svg>
