<svg xmlns="http://www.w3.org/2000/svg" width="100" height="100" viewBox="0 0 100 100">
    <defs>
        <clipPath id="clip-path">
            <path id="Rectangle_7714" data-name="Rectangle 7714" class="cls-1" d="M0 0h31.052v44.199H0z"/>
        </clipPath>
        <style>
            .cls-1{fill:#9ca1b0}
        </style>
    </defs>
    <g id="section6__brunch" data-name="section6_ brunch" transform="translate(-1034 -3846)">
        <circle id="Ellipse_65560" data-name="Ellipse 65560" cx="50" cy="50" r="50" transform="translate(1034 3846)" style="fill:#f5f7fd"/>
        <g id="Group_78714" data-name="Group 78714" transform="translate(1068.228 3874.17)">
            <g id="Group_78713" data-name="Group 78713" style="clip-path:url(#clip-path)">
                <path id="Path_11374" data-name="Path 11374" class="cls-1" d="M4.648 39.954a1.188 1.188 0 0 1 .959-.511 31.444 31.444 0 0 0 10.916-2.607 20.262 20.262 0 0 0 8.1-6.185 8.056 8.056 0 0 0 1.8-4.925 3.122 3.122 0 0 0-3.251-3.37 8.993 8.993 0 0 0-4.649 1.272 30.82 30.82 0 0 0-7.126 5.7c-.166.167-.279.412-.574.467a1.742 1.742 0 0 1 .406-.973A56.474 56.474 0 0 1 20.6 16.638a7.437 7.437 0 0 0 1.711-2.32 1.81 1.81 0 0 0 .151-1.616c-.26-.481-.1-.638.318-.873a16.4 16.4 0 0 0 7.777-9.413c.232-.71.543-1.552-.171-2.134C29.63-.335 28.871.2 28.21.6a18.5 18.5 0 0 0-4.4 3.751 68.28 68.28 0 0 0-7.266 10.538C12.391 22.081 8.326 29.326 4.22 36.548c-.789 1.387-.793 1.382-2.207.584-.165-.093-.331-.385-.538-.02-.155.272-.356.51.032.757a7.34 7.34 0 0 0 .946.636c.469.2.425.405.2.786C1.8 40.709.991 42.147.174 43.583c-.092.162-.287.35-.089.545.163.159.334-.005.486-.076.783-.363 1.569-.72 2.339-1.108a2.034 2.034 0 0 0 1.176-1.589 3.073 3.073 0 0 1 .561-1.4m23.511-37.56c.239 2.077-5.061 8.539-7.5 9.236a73.42 73.42 0 0 1 7.5-9.236m-7.633 9.454c.154.139-.035.3.042.432.7 1.217-.058 2-.833 2.765-.857.844-1.734 1.666-2.668 2.561a54.576 54.576 0 0 1 3.459-5.757M9.7 32.976a32.138 32.138 0 0 1 9.6-8.143 6.9 6.9 0 0 1 2-.726c1.3-.226 2.026.389 1.928 1.715a8.461 8.461 0 0 1-1.589 4.154 17.77 17.77 0 0 1-8.768 6.693 27.644 27.644 0 0 1-7.042 1.567 45.141 45.141 0 0 1 3.871-5.26"/>
                <path id="Path_11375" data-name="Path 11375" class="cls-1" d="M35.042 88.3q-13.017-.005-26.033-.015a.669.669 0 0 0-.764.642.368.368 0 0 0 .081.02q13.13.009 26.26.023c.466 0 .589-.238.646-.616a.9.9 0 0 0-.191-.055" transform="translate(-4.181 -44.771)"/>
            </g>
        </g>
    </g>
</svg>
