<svg xmlns="http://www.w3.org/2000/svg" width="100" height="100" viewBox="0 0 100 100">
    <defs>
        <style>
            .cls-2{fill:#9ca1b0;stroke:#9ca1b0;stroke-width:.5px}
        </style>
    </defs>
    <g id="section6_insta" transform="translate(-662 -3846)">
        <circle id="Ellipse_65558" data-name="Ellipse 65558" cx="50" cy="50" r="50" transform="translate(662 3846)" style="fill:#f5f7fd"/>
        <g id="Group_71658" data-name="Group 71658" transform="translate(690 3874)">
            <g id="Group_71656" data-name="Group 71656">
                <path id="Path_4177" data-name="Path 4177" class="cls-2" d="M964.432 290.849H945.01a12.524 12.524 0 0 1-12.51-12.51v-19.348a12.524 12.524 0 0 1 12.51-12.51h19.422a12.524 12.524 0 0 1 12.51 12.51v19.348a12.524 12.524 0 0 1-12.51 12.51zm-19.422-41.288a9.441 9.441 0 0 0-9.43 9.43v19.348a9.441 9.441 0 0 0 9.43 9.43h19.422a9.441 9.441 0 0 0 9.43-9.43v-19.348a9.441 9.441 0 0 0-9.43-9.43z" transform="translate(-932.5 -246.481)"/>
            </g>
            <g id="Group_71657" data-name="Group 71657" transform="translate(10.854 10.817)">
                <path id="Path_4178" data-name="Path 4178" class="cls-2" d="M975.25 300.492a11.367 11.367 0 1 1 11.367-11.367 11.38 11.38 0 0 1-11.367 11.367zm0-19.654a8.287 8.287 0 1 0 8.287 8.287 8.3 8.3 0 0 0-8.287-8.287z" transform="translate(-963.883 -277.758)"/>
            </g>
            <circle id="Ellipse_64754" data-name="Ellipse 64754" class="cls-2" cx="2.64" cy="2.64" r="2.64" transform="translate(31.645 7.572)"/>
        </g>
    </g>
</svg>
