<svg xmlns="http://www.w3.org/2000/svg" width="100" height="100" viewBox="0 0 100 100">
    <defs>
        <clipPath id="clip-path">
            <path id="Rectangle_7715" data-name="Rectangle 7715" class="cls-1" d="M0 0h48.212v33.766H0z"/>
        </clipPath>
        <style>
            .cls-1{fill:#9ca1b0}
        </style>
    </defs>
    <g id="section6_youtube" transform="translate(-910 -3846)">
        <circle id="Ellipse_65561" data-name="Ellipse 65561" cx="50" cy="50" r="50" transform="translate(910 3846)" style="fill:#f5f7fd"/>
        <g id="Group_78716" data-name="Group 78716" transform="translate(936 3879)">
            <g id="Group_78715" data-name="Group 78715" style="clip-path:url(#clip-path)">
                <path id="Path_11376" data-name="Path 11376" class="cls-1" d="M48.173 18.415a2.734 2.734 0 0 1 .027-.374v-2.309a2.726 2.726 0 0 1-.027-.374c-.019-.321-.02-.642-.015-.964l-.016-.667a.958.958 0 0 1-.024-.2 4.112 4.112 0 0 1-.017-.566l-.015-.5a2.017 2.017 0 0 1-.045-.65c0-.11-.008-.219-.012-.329a.493.493 0 0 1-.029-.135 2.017 2.017 0 0 1-.018-.392l-.014-.318a.9.9 0 0 1-.045-.427l-.012-.258a.7.7 0 0 1-.043-.372c0-.073-.009-.146-.013-.219a.237.237 0 0 1-.025-.092.879.879 0 0 1-.019-.262c0-.072-.009-.144-.014-.216a.192.192 0 0 1-.023-.075.64.64 0 0 1-.02-.226l-.015-.21a.484.484 0 0 1-.044-.306c-.1-.574-.195-1.148-.3-1.721a6.567 6.567 0 0 0-1.58-3.453 6.118 6.118 0 0 0-2.678-1.707 20.235 20.235 0 0 0-2.042-.407.506.506 0 0 1-.313-.044l-.2-.015a.512.512 0 0 1-.313-.042l-.2-.014a.673.673 0 0 1-.374-.045l-.263-.013a.927.927 0 0 1-.418-.043h-.006l-.264-.014a1.159 1.159 0 0 1-.485-.045L37.941.4a2.164 2.164 0 0 1-.406-.019.514.514 0 0 1-.13-.023H37.4L37.024.34a2 2 0 0 1-.652-.04l-.438-.018a3.681 3.681 0 0 1-.517-.017.839.839 0 0 1-.19-.026l-.554-.015a4.806 4.806 0 0 1-.606-.016 1.083 1.083 0 0 1-.217-.026l-.668-.016a7.035 7.035 0 0 1-.732-.015 1.568 1.568 0 0 1-.262-.026l-.783-.012a9.9 9.9 0 0 1-1.463-.047L28.883.055c-.717 0-1.434.012-2.15-.021-.15 0-.3-.01-.45-.024h-4.374a.9.9 0 0 1-.34.023h-.089c-.723.034-1.447.022-2.171.022L18.25.066a.6.6 0 0 1-.25.026c-.4.036-.81.02-1.215.021l-.779.012a1.6 1.6 0 0 1-.265.026 7.047 7.047 0 0 1-.733.015l-.668.015a1.073 1.073 0 0 1-.217.026 4.806 4.806 0 0 1-.606.016l-.555.015a.829.829 0 0 1-.189.026 3.681 3.681 0 0 1-.517.017L11.821.3a2 2 0 0 1-.652.043l-.376.014a.488.488 0 0 1-.136.024 2.162 2.162 0 0 1-.406.019l-.318.012a1.159 1.159 0 0 1-.485.045L9.184.47a.912.912 0 0 1-.424.043L8.5.526a.678.678 0 0 1-.37.045l-.2.014a.514.514 0 0 1-.313.042l-.2.015A.506.506 0 0 1 7.1.686c-.367.06-.731.122-1.1.18a5.964 5.964 0 0 0-4.983 4.4 29.984 29.984 0 0 0-.794 5.562 77.65 77.65 0 0 0-.221 5.262 79.91 79.91 0 0 0 .257 7.208A35.33 35.33 0 0 0 .9 28.075a6.09 6.09 0 0 0 5.114 4.838c1.4.23 2.819.329 4.233.462a2.165 2.165 0 0 1 .406.019.5.5 0 0 1 .131.024l.376.014a3.349 3.349 0 0 1 .481.018.694.694 0 0 1 .17.025l.438.014a1.981 1.981 0 0 1 .66.044l.6.014a4.787 4.787 0 0 1 .6.017 1.047 1.047 0 0 1 .218.025l.668.015a4.489 4.489 0 0 1 1 .041l.781.014a9.713 9.713 0 0 1 1.461.044l1.062.013c.7 0 1.409-.015 2.114.019.141 0 .282.01.423.024h4.486a.926.926 0 0 1 .337-.024h.073c.713-.036 1.426-.022 2.139-.021l1.062-.013a.585.585 0 0 1 .245-.025c.4-.035.81-.021 1.216-.019l.781-.014a4.453 4.453 0 0 1 1-.042l.668-.015a1.047 1.047 0 0 1 .218-.025 4.678 4.678 0 0 1 .6-.017l.6-.014a1.98 1.98 0 0 1 .66-.044l.438-.014a.694.694 0 0 1 .17-.025 3.349 3.349 0 0 1 .481-.018l.376-.014a.51.51 0 0 1 .136-.024 2.165 2.165 0 0 1 .406-.019l.32-.014a1.143 1.143 0 0 1 .484-.044l.264-.013a.913.913 0 0 1 .424-.044l.257-.012a.684.684 0 0 1 .374-.045l.2-.013a.51.51 0 0 1 .313-.042l.2-.015a.5.5 0 0 1 .312-.044 12.142 12.142 0 0 0 2.245-.47 6.018 6.018 0 0 0 3.952-4.6c.162-.736.254-1.482.4-2.219a.486.486 0 0 1 .044-.3c0-.07.01-.14.015-.21a.642.642 0 0 1 .02-.226.2.2 0 0 1 .023-.075c0-.072.009-.144.014-.215a.885.885 0 0 1 .019-.262.237.237 0 0 1 .025-.092c0-.073.009-.146.013-.219a.694.694 0 0 1 .043-.372l.012-.259a.9.9 0 0 1 .045-.427l.014-.318a2.069 2.069 0 0 1 .04-.396.5.5 0 0 1 .026-.139c0-.109.008-.218.012-.328a2.016 2.016 0 0 1 .045-.65l.015-.5a4.112 4.112 0 0 1 .017-.566.964.964 0 0 1 .024-.2l.015-.667c0-.321 0-.643.015-.964m-28.889 5.68V9.681l12.477 7.206-12.477 7.205" transform="translate(0 -.004)"/>
                <path id="Path_11377" data-name="Path 11377" class="cls-1" d="M34.791.03c.143-.007.286-.012.429-.024L32.834 0c-.074 0-.153-.015-.213.05.723-.046 1.447-.011 2.17-.021" transform="translate(-13.312)"/>
                <path id="Path_11378" data-name="Path 11378" class="cls-1" d="M34.791.049c-.723.011-1.447-.025-2.17.021.723 0 1.447.013 2.17-.021" transform="translate(-13.312 -.019)"/>
                <path id="Path_11379" data-name="Path 11379" class="cls-1" d="M46.117.032a7.01 7.01 0 0 1 .883.02c-.06-.065-.139-.05-.213-.05L44.4.007c.15.012.3.018.45.025.421.009.843-.012 1.265 0" transform="translate(-18.119)"/>
                <path id="Path_11380" data-name="Path 11380" class="cls-1" d="M47.311.07a7.12 7.12 0 0 0-.885-.021c-.421-.012-.843.009-1.265 0 .716.033 1.433.02 2.15.02" transform="translate(-18.429 -.019)"/>
                <path id="Path_11381" data-name="Path 11381" class="cls-1" d="M44.895 56.98c-.137.007-.274.012-.411.024h2.336c.074 0 .153.015.214-.049-.713.044-1.427.011-2.14.021" transform="translate(-18.153 -23.244)"/>
                <path id="Path_11382" data-name="Path 11382" class="cls-1" d="M45.178 56.977c.713-.01 1.427.023 2.14-.021-.713 0-1.427-.015-2.14.021" transform="translate(-18.436 -23.241)"/>
                <path id="Path_11383" data-name="Path 11383" class="cls-1" d="M34.735 56.978c-.393-.009-.786.012-1.179 0a8.64 8.64 0 0 1-.935-.02c.06.064.14.049.214.049h2.335-.013c-.141-.012-.282-.018-.423-.025" transform="translate(-13.312 -23.244)"/>
                <path id="Path_11384" data-name="Path 11384" class="cls-1" d="M33.556 56.976c.393.012.786-.009 1.179 0-.7-.034-1.409-.02-2.114-.018a8.638 8.638 0 0 0 .935.019" transform="translate(-13.312 -23.241)"/>
                <path id="Path_11385" data-name="Path 11385" class="cls-1" d="M36.906 57.033" transform="translate(-15.06 -23.274)"/>
                <path id="Path_11386" data-name="Path 11386" class="cls-1" d="M50.893 56.882h-.062c-.082.007-.164.013-.246.025.1 0 .208.011.312 0a5.253 5.253 0 0 0 1.149-.048c-.384.043-.769.008-1.154.02" transform="translate(-20.643 -23.204)"/>
                <path id="Path_11387" data-name="Path 11387" class="cls-1" d="M51 56.879h.062c.385-.012.77.024 1.154-.02-.405 0-.812-.016-1.216.019" transform="translate(-20.812 -23.201)"/>
                <path id="Path_11388" data-name="Path 11388" class="cls-1" d="M28.667 56.882a.978.978 0 0 1-.308-.019c.06.063.139.049.214.049h1.247a11.342 11.342 0 0 0-1.152-.025" transform="translate(-11.573 -23.204)"/>
                <path id="Path_11389" data-name="Path 11389" class="cls-1" d="M28.359 56.859a.977.977 0 0 0 .308.019 11.522 11.522 0 0 1 1.152.025 9.635 9.635 0 0 0-1.461-.044" transform="translate(-11.573 -23.2)"/>
                <path id="Path_11390" data-name="Path 11390" class="cls-1" d="M51.711.128a1.032 1.032 0 0 1 .336.021C51.988.084 51.909.1 51.835.1h-1.25a10.368 10.368 0 0 0 1.126.026" transform="translate(-20.642 -.04)"/>
                <path id="Path_11391" data-name="Path 11391" class="cls-1" d="M52.047.152a1.049 1.049 0 0 0-.336-.021 10.834 10.834 0 0 1-1.126-.025 9.9 9.9 0 0 0 1.463.046" transform="translate(-20.642 -.043)"/>
                <path id="Path_11392" data-name="Path 11392" class="cls-1" d="M29.486.123h.087c.083-.007.166-.014.249-.026-.123 0-.247-.011-.369 0a4.666 4.666 0 0 0-1.094.049c.375-.046.751-.01 1.127-.023" transform="translate(-11.573 -.035)"/>
                <path id="Path_11393" data-name="Path 11393" class="cls-1" d="M29.573.147h-.087c-.376.014-.752-.025-1.128.021.405 0 .811.015 1.215-.02" transform="translate(-11.572 -.059)"/>
                <path id="Path_11394" data-name="Path 11394" class="cls-1" d="M81.372 25.275c.007.124.008.249.027.374a6.877 6.877 0 0 0-.042-1.338 8.734 8.734 0 0 1 .015.964" transform="translate(-33.2 -9.921)"/>
                <path id="Path_11395" data-name="Path 11395" class="cls-1" d="M81.371 25.275a8.73 8.73 0 0 0-.015-.964c0 .322 0 .643.015.964" transform="translate(-33.198 -9.921)"/>
                <path id="Path_11396" data-name="Path 11396" class="cls-1" d="M81.372 30.846a8.723 8.723 0 0 1-.015.964 6.874 6.874 0 0 0 .042-1.338c-.018.124-.02.249-.027.374" transform="translate(-33.2 -12.435)"/>
                <path id="Path_11397" data-name="Path 11397" class="cls-1" d="M81.371 31.1c-.019.321-.02.642-.015.964a8.719 8.719 0 0 0 .015-.964" transform="translate(-33.198 -12.693)"/>
                <path id="Path_11398" data-name="Path 11398" class="cls-1" d="M26.09.222A2.212 2.212 0 0 0 26.354.2a3.8 3.8 0 0 0-1 .041 5.218 5.218 0 0 1 .736-.019" transform="translate(-10.347 -.075)"/>
                <path id="Path_11399" data-name="Path 11399" class="cls-1" d="M26.09.245a5.218 5.218 0 0 0-.733.015 7.039 7.039 0 0 0 .733-.015" transform="translate(-10.347 -.098)"/>
                <path id="Path_11400" data-name="Path 11400" class="cls-1" d="M54.637.222a5.218 5.218 0 0 1 .733.015 3.805 3.805 0 0 0-1-.041 2.3 2.3 0 0 0 .262.025" transform="translate(-22.188 -.075)"/>
                <path id="Path_11401" data-name="Path 11401" class="cls-1" d="M54.819.245a7.039 7.039 0 0 0 .733.015 5.218 5.218 0 0 0-.733-.015" transform="translate(-22.37 -.098)"/>
                <path id="Path_11402" data-name="Path 11402" class="cls-1" d="M54.375.206" transform="translate(-22.188 -.084)"/>
                <path id="Path_11403" data-name="Path 11403" class="cls-1" d="M54.374 56.81a3.822 3.822 0 0 0 1-.041c-.33.054-.667-.023-1 .041" transform="translate(-22.189 -23.166)"/>
                <path id="Path_11404" data-name="Path 11404" class="cls-1" d="M54.374 56.8c.33-.065.666.013 1-.041a4.419 4.419 0 0 0-1 .041" transform="translate(-22.189 -23.161)"/>
                <path id="Path_11405" data-name="Path 11405" class="cls-1" d="M25.357 56.769a3.771 3.771 0 0 0 1 .041c-.33-.064-.665.013-1-.041" transform="translate(-10.347 -23.166)"/>
                <path id="Path_11406" data-name="Path 11406" class="cls-1" d="M25.357 56.763c.33.054.666-.022 1 .041a4.414 4.414 0 0 0-1-.041" transform="translate(-10.347 -23.161)"/>
                <path id="Path_11407" data-name="Path 11407" class="cls-1" d="M23.445.319a1.57 1.57 0 0 0 .216-.025 2.623 2.623 0 0 0-.822.041 3.692 3.692 0 0 1 .606-.016" transform="translate(-9.32 -.115)"/>
                <path id="Path_11408" data-name="Path 11408" class="cls-1" d="M23.445.342a3.692 3.692 0 0 0-.606.016 4.593 4.593 0 0 0 .606-.016" transform="translate(-9.32 -.138)"/>
                <path id="Path_11409" data-name="Path 11409" class="cls-1" d="M58.009.335a2.627 2.627 0 0 0-.822-.041 1.578 1.578 0 0 0 .213.025 3.692 3.692 0 0 1 .606.016" transform="translate(-23.336 -.115)"/>
                <path id="Path_11410" data-name="Path 11410" class="cls-1" d="M58.159.358a3.692 3.692 0 0 0-.606-.016 4.806 4.806 0 0 0 .606.016" transform="translate(-23.486 -.138)"/>
                <path id="Path_11411" data-name="Path 11411" class="cls-1" d="M57.4 56.688a1.7 1.7 0 0 0-.218.025 2.645 2.645 0 0 0 .822-.041 3.614 3.614 0 0 1-.6.016" transform="translate(-23.336 -23.126)"/>
                <path id="Path_11412" data-name="Path 11412" class="cls-1" d="M57.555 56.686a3.614 3.614 0 0 0 .6-.016 4.679 4.679 0 0 0-.6.016" transform="translate(-23.487 -23.124)"/>
                <path id="Path_11413" data-name="Path 11413" class="cls-1" d="M22.838 56.672a2.645 2.645 0 0 0 .822.042 1.6 1.6 0 0 0-.218-.026 3.614 3.614 0 0 1-.6-.016" transform="translate(-9.32 -23.126)"/>
                <path id="Path_11414" data-name="Path 11414" class="cls-1" d="M22.838 56.67a3.614 3.614 0 0 0 .6.016 4.787 4.787 0 0 0-.6-.016" transform="translate(-9.32 -23.125)"/>
                <path id="Path_11415" data-name="Path 11415" class="cls-1" d="M81.277 34.059a3.413 3.413 0 0 1-.017.566 2.3 2.3 0 0 0 .041-.767 1.382 1.382 0 0 0-.024.2" transform="translate(-33.16 -13.817)"/>
                <path id="Path_11416" data-name="Path 11416" class="cls-1" d="M81.275 34.2a4.207 4.207 0 0 0-.017.566 3.413 3.413 0 0 0 .017-.566" transform="translate(-33.158 -13.955)"/>
                <path id="Path_11417" data-name="Path 11417" class="cls-1" d="M81.329 33.862" transform="translate(-33.188 -13.817)"/>
                <path id="Path_11418" data-name="Path 11418" class="cls-1" d="M81.277 22.456a1.349 1.349 0 0 0 .025.2 2.3 2.3 0 0 0-.041-.767 3.413 3.413 0 0 1 .017.566" transform="translate(-33.16 -8.933)"/>
                <path id="Path_11419" data-name="Path 11419" class="cls-1" d="M81.275 22.456a3.413 3.413 0 0 0-.017-.566 4.207 4.207 0 0 0 .017.566" transform="translate(-33.158 -8.933)"/>
                <path id="Path_11420" data-name="Path 11420" class="cls-1" d="M21.224.416a1.222 1.222 0 0 0 .19-.026 1.924 1.924 0 0 0-.707.044 2.478 2.478 0 0 1 .517-.018" transform="translate(-8.45 -.154)"/>
                <path id="Path_11421" data-name="Path 11421" class="cls-1" d="M21.224.439a2.478 2.478 0 0 0-.517.018 3.773 3.773 0 0 0 .517-.018" transform="translate(-8.45 -.177)"/>
                <path id="Path_11422" data-name="Path 11422" class="cls-1" d="M60.219.434a1.911 1.911 0 0 0-.707-.044 1.22 1.22 0 0 0 .19.025 2.519 2.519 0 0 1 .517.018" transform="translate(-24.285 -.154)"/>
                <path id="Path_11423" data-name="Path 11423" class="cls-1" d="M60.35.456a2.519 2.519 0 0 0-.517-.018 3.594 3.594 0 0 0 .517.018" transform="translate(-24.416 -.177)"/>
                <path id="Path_11424" data-name="Path 11424" class="cls-1" d="M59.591 56.616a1.723 1.723 0 0 0 .66-.044c-.217.056-.443-.02-.66.044" transform="translate(-24.317 -23.086)"/>
                <path id="Path_11425" data-name="Path 11425" class="cls-1" d="M59.591 56.612c.217-.064.443.011.66-.044a2 2 0 0 0-.66.044" transform="translate(-24.317 -23.082)"/>
                <path id="Path_11426" data-name="Path 11426" class="cls-1" d="M20.708 56.572a1.723 1.723 0 0 0 .66.044c-.217-.064-.443.011-.66-.044" transform="translate(-8.45 -23.086)"/>
                <path id="Path_11427" data-name="Path 11427" class="cls-1" d="M20.708 56.568c.217.056.443-.02.66.044a1.98 1.98 0 0 0-.66-.044" transform="translate(-8.45 -23.081)"/>
                <path id="Path_11428" data-name="Path 11428" class="cls-1" d="M61.617 56.494a.974.974 0 0 0-.17.025 1.644 1.644 0 0 0 .651-.043 2.216 2.216 0 0 1-.481.018" transform="translate(-25.075 -23.046)"/>
                <path id="Path_11429" data-name="Path 11429" class="cls-1" d="M61.734 56.493a2.216 2.216 0 0 0 .481-.018 3.348 3.348 0 0 0-.481.018" transform="translate(-25.192 -23.046)"/>
                <path id="Path_11430" data-name="Path 11430" class="cls-1" d="M18.867 56.476a1.647 1.647 0 0 0 .652.043.989.989 0 0 0-.17-.025 2.216 2.216 0 0 1-.481-.018" transform="translate(-7.699 -23.046)"/>
                <path id="Path_11431" data-name="Path 11431" class="cls-1" d="M18.867 56.475a2.216 2.216 0 0 0 .481.018 3.345 3.345 0 0 0-.481-.018" transform="translate(-7.699 -23.046)"/>
                <path id="Path_11432" data-name="Path 11432" class="cls-1" d="M81.157 36.643a1.6 1.6 0 0 0 .045-.65c-.064.213.015.436-.045.65" transform="translate(-33.118 -14.688)"/>
                <path id="Path_11433" data-name="Path 11433" class="cls-1" d="M81.154 36.643c.06-.214-.019-.437.045-.65a2.034 2.034 0 0 0-.045.65" transform="translate(-33.115 -14.688)"/>
                <path id="Path_11434" data-name="Path 11434" class="cls-1" d="M62.1.53a1.65 1.65 0 0 0-.652-.043c.214.063.437-.012.652.043" transform="translate(-25.074 -.194)"/>
                <path id="Path_11435" data-name="Path 11435" class="cls-1" d="M62.1.538c-.215-.056-.438.02-.652-.043a2 2 0 0 0 .652.043" transform="translate(-25.074 -.202)"/>
                <path id="Path_11436" data-name="Path 11436" class="cls-1" d="M19.519.488a1.639 1.639 0 0 0-.652.043c.214-.056.438.02.652-.043" transform="translate(-7.699 -.194)"/>
                <path id="Path_11437" data-name="Path 11437" class="cls-1" d="M19.519.5c-.214.063-.438-.012-.652.043A2.016 2.016 0 0 0 19.519.5" transform="translate(-7.699 -.203)"/>
                <path id="Path_11438" data-name="Path 11438" class="cls-1" d="M81.2 20.6a1.6 1.6 0 0 0-.045-.65c.06.213-.02.437.045.65" transform="translate(-33.118 -8.143)"/>
                <path id="Path_11439" data-name="Path 11439" class="cls-1" d="M81.2 20.6c-.065-.213.015-.437-.045-.65a2.034 2.034 0 0 0 .045.65" transform="translate(-33.115 -8.143)"/>
                <path id="Path_11440" data-name="Path 11440" class="cls-1" d="M81.081 18.893a.665.665 0 0 0 .026.139c-.013-.177.052-.36-.044-.531a1.5 1.5 0 0 1 .018.392" transform="translate(-33.08 -7.55)"/>
                <path id="Path_11441" data-name="Path 11441" class="cls-1" d="M81.08 18.893a1.5 1.5 0 0 0-.018-.392 2.069 2.069 0 0 0 .018.392" transform="translate(-33.078 -7.55)"/>
                <path id="Path_11442" data-name="Path 11442" class="cls-1" d="M81.063 38.177c.1-.17.031-.354.044-.531a.621.621 0 0 0-.025.139 1.526 1.526 0 0 1-.018.392" transform="translate(-33.08 -15.362)"/>
                <path id="Path_11443" data-name="Path 11443" class="cls-1" d="M81.062 38.272a1.526 1.526 0 0 0 .018-.392 2.021 2.021 0 0 0-.018.392" transform="translate(-33.078 -15.458)"/>
                <path id="Path_11444" data-name="Path 11444" class="cls-1" d="M17.723 56.4a1.693 1.693 0 0 1-.406-.019c.174.1.361.031.542.043a.66.66 0 0 0-.131-.024" transform="translate(-7.067 -23.006)"/>
                <path id="Path_11445" data-name="Path 11445" class="cls-1" d="M17.723 56.4a2.269 2.269 0 0 0-.406-.019 1.693 1.693 0 0 0 .406.019" transform="translate(-7.067 -23.006)"/>
                <path id="Path_11446" data-name="Path 11446" class="cls-1" d="M18.225 56.45" transform="translate(-7.437 -23.036)"/>
                <path id="Path_11447" data-name="Path 11447" class="cls-1" d="M63.317 56.4a.723.723 0 0 0-.136.024c.181-.012.368.053.542-.043a1.693 1.693 0 0 1-.406.019" transform="translate(-25.782 -23.006)"/>
                <path id="Path_11448" data-name="Path 11448" class="cls-1" d="M63.411 56.4a1.693 1.693 0 0 0 .406-.019 2.269 2.269 0 0 0-.406.019" transform="translate(-25.876 -23.006)"/>
                <path id="Path_11449" data-name="Path 11449" class="cls-1" d="M63.317.61a1.7 1.7 0 0 1 .407.019c-.175-.1-.362-.031-.542-.043h.006a.7.7 0 0 0 .13.023" transform="translate(-25.782 -.235)"/>
                <path id="Path_11450" data-name="Path 11450" class="cls-1" d="M63.41.632a2.222 2.222 0 0 0 .407.019 1.7 1.7 0 0 0-.407-.019" transform="translate(-25.876 -.257)"/>
                <path id="Path_11451" data-name="Path 11451" class="cls-1" d="M63.187.593" transform="translate(-25.782 -.242)"/>
                <path id="Path_11452" data-name="Path 11452" class="cls-1" d="M17.724.61a.672.672 0 0 0 .136-.024c-.181.012-.368-.053-.542.043a1.7 1.7 0 0 1 .406-.019" transform="translate(-7.067 -.235)"/>
                <path id="Path_11453" data-name="Path 11453" class="cls-1" d="M17.724.632a1.7 1.7 0 0 0-.407.019 2.222 2.222 0 0 0 .407-.019" transform="translate(-7.067 -.257)"/>
                <path id="Path_11454" data-name="Path 11454" class="cls-1" d="M64.636 56.323c.162-.012.33.056.484-.044-.157.056-.327-.014-.484.044" transform="translate(-26.376 -22.966)"/>
                <path id="Path_11455" data-name="Path 11455" class="cls-1" d="M64.636 56.32c.157-.059.326.011.484-.044a1.143 1.143 0 0 0-.484.044" transform="translate(-26.376 -22.963)"/>
                <path id="Path_11456" data-name="Path 11456" class="cls-1" d="M65.119.726c-.153-.1-.323-.033-.484-.044.157.058.327-.011.484.044" transform="translate(-26.376 -.274)"/>
                <path id="Path_11457" data-name="Path 11457" class="cls-1" d="M65.119.734c-.157-.056-.327.014-.484-.044a1.158 1.158 0 0 0 .485.044" transform="translate(-26.375 -.282)"/>
                <path id="Path_11458" data-name="Path 11458" class="cls-1" d="M16.446.681c-.162.012-.331-.057-.485.044.158-.055.327.014.485-.044" transform="translate(-6.513 -.273)"/>
                <path id="Path_11459" data-name="Path 11459" class="cls-1" d="M16.446.689c-.157.059-.327-.011-.485.044a1.149 1.149 0 0 0 .485-.044" transform="translate(-6.513 -.281)"/>
                <path id="Path_11460" data-name="Path 11460" class="cls-1" d="M80.964 39.508c.1-.134.033-.285.044-.427-.056.139.009.289-.044.427" transform="translate(-33.039 -15.948)"/>
                <path id="Path_11461" data-name="Path 11461" class="cls-1" d="M80.961 39.508c.053-.139-.011-.289.044-.427a.9.9 0 0 0-.044.427" transform="translate(-33.036 -15.948)"/>
                <path id="Path_11462" data-name="Path 11462" class="cls-1" d="M65.9 56.226c.142-.01.291.053.424-.044-.137.054-.287-.012-.424.044" transform="translate(-26.892 -22.926)"/>
                <path id="Path_11463" data-name="Path 11463" class="cls-1" d="M65.9 56.223c.137-.056.286.009.424-.044a.913.913 0 0 0-.424.044" transform="translate(-26.892 -22.923)"/>
                <path id="Path_11464" data-name="Path 11464" class="cls-1" d="M66.323.824C66.19.726 66.04.79 65.9.78h.007c.134.053.282-.009.418.043" transform="translate(-26.892 -.314)"/>
                <path id="Path_11465" data-name="Path 11465" class="cls-1" d="M66.328.832c-.136-.053-.284.009-.418-.043a.925.925 0 0 0 .418.043" transform="translate(-26.896 -.322)"/>
                <path id="Path_11466" data-name="Path 11466" class="cls-1" d="M15.223.779c-.142.01-.291-.053-.424.044.137-.054.287.012.424-.044" transform="translate(-6.039 -.314)"/>
                <path id="Path_11467" data-name="Path 11467" class="cls-1" d="M15.223.787c-.137.056-.286-.009-.424.044a.913.913 0 0 0 .424-.044" transform="translate(-6.039 -.321)"/>
                <path id="Path_11468" data-name="Path 11468" class="cls-1" d="M81.008 17.669c-.011-.143.053-.294-.044-.427.053.139-.011.289.044.427" transform="translate(-33.039 -7.036)"/>
                <path id="Path_11469" data-name="Path 11469" class="cls-1" d="M81.005 17.669c-.056-.139.009-.289-.044-.427a.9.9 0 0 0 .044.427" transform="translate(-33.036 -7.036)"/>
                <path id="Path_11470" data-name="Path 11470" class="cls-1" d="M80.871 16.177c.046.12-.008.252.043.372-.009-.124.048-.256-.043-.372" transform="translate(-33.001 -6.602)"/>
                <path id="Path_11471" data-name="Path 11471" class="cls-1" d="M80.91 16.549c-.051-.12 0-.252-.043-.372a.688.688 0 0 0 .043.372" transform="translate(-32.997 -6.602)"/>
                <path id="Path_11472" data-name="Path 11472" class="cls-1" d="M80.793 15.47a.37.37 0 0 0 .025.092c-.01-.118.044-.245-.044-.354a.791.791 0 0 1 .019.262" transform="translate(-32.962 -6.206)"/>
                <path id="Path_11473" data-name="Path 11473" class="cls-1" d="M80.791 15.47a.791.791 0 0 0-.019-.262.842.842 0 0 0 .019.262" transform="translate(-32.96 -6.206)"/>
                <path id="Path_11474" data-name="Path 11474" class="cls-1" d="M80.914 40.24c-.051.12 0 .252-.043.372.09-.115.033-.247.043-.372" transform="translate(-33.001 -16.421)"/>
                <path id="Path_11475" data-name="Path 11475" class="cls-1" d="M80.867 40.611c.046-.12-.008-.252.043-.372a.694.694 0 0 0-.043.372" transform="translate(-32.998 -16.421)"/>
                <path id="Path_11476" data-name="Path 11476" class="cls-1" d="M80.773 41.592c.089-.109.035-.236.044-.355a.374.374 0 0 0-.025.093.776.776 0 0 1-.019.262" transform="translate(-32.961 -16.828)"/>
                <path id="Path_11477" data-name="Path 11477" class="cls-1" d="M80.771 41.656a.776.776 0 0 0 .019-.262.879.879 0 0 0-.019.262" transform="translate(-32.96 -16.892)"/>
                <path id="Path_11478" data-name="Path 11478" class="cls-1" d="M67.423 56.085c-.12.05-.254-.007-.374.045.125-.011.259.049.374-.045" transform="translate(-27.361 -22.887)"/>
                <path id="Path_11479" data-name="Path 11479" class="cls-1" d="M67.049 56.128c.12-.052.253 0 .374-.045a.685.685 0 0 0-.374.045" transform="translate(-27.361 -22.884)"/>
                <path id="Path_11480" data-name="Path 11480" class="cls-1" d="M67.049.877c.12.052.253 0 .374.045-.115-.094-.249-.034-.374-.045" transform="translate(-27.361 -.354)"/>
                <path id="Path_11481" data-name="Path 11481" class="cls-1" d="M67.423.928c-.12-.05-.253.007-.374-.045a.681.681 0 0 0 .374.045" transform="translate(-27.361 -.361)"/>
                <path id="Path_11482" data-name="Path 11482" class="cls-1" d="M13.733.922c.12-.05.254.007.374-.045-.125.011-.259-.05-.374.045" transform="translate(-5.604 -.354)"/>
                <path id="Path_11483" data-name="Path 11483" class="cls-1" d="M14.107.883c-.12.052-.253 0-.374.045a.68.68 0 0 0 .374-.045" transform="translate(-5.604 -.361)"/>
                <path id="Path_11484" data-name="Path 11484" class="cls-1" d="M80.721 14.637c-.006-.1.038-.21-.044-.3a.685.685 0 0 1 .021.226.286.286 0 0 0 .023.075" transform="translate(-32.922 -5.851)"/>
                <path id="Path_11485" data-name="Path 11485" class="cls-1" d="M80.7 14.563a.7.7 0 0 0-.021-.226.628.628 0 0 0 .021.226" transform="translate(-32.921 -5.851)"/>
                <path id="Path_11486" data-name="Path 11486" class="cls-1" d="M80.62 13.77c0-.1.042-.214-.044-.306.049.1-.006.209.044.306" transform="translate(-32.881 -5.494)"/>
                <path id="Path_11487" data-name="Path 11487" class="cls-1" d="M80.617 13.77c-.05-.1 0-.209-.044-.306a.484.484 0 0 0 .044.306" transform="translate(-32.877 -5.494)"/>
                <path id="Path_11488" data-name="Path 11488" class="cls-1" d="M68.9 1.072c.1.046.213 0 .313.044-.095-.087-.208-.038-.313-.044" transform="translate(-28.115 -.434)"/>
                <path id="Path_11489" data-name="Path 11489" class="cls-1" d="M69.208 1.122c-.1-.046-.213 0-.313-.044a.506.506 0 0 0 .313.044" transform="translate(-28.114 -.44)"/>
                <path id="Path_11490" data-name="Path 11490" class="cls-1" d="M80.721 42.2a.286.286 0 0 0-.023.075.688.688 0 0 1-.021.226c.082-.091.038-.2.044-.3" transform="translate(-32.922 -17.221)"/>
                <path id="Path_11491" data-name="Path 11491" class="cls-1" d="M80.676 42.552a.669.669 0 0 0 .02-.226.642.642 0 0 0-.02.226" transform="translate(-32.921 -17.272)"/>
                <path id="Path_11492" data-name="Path 11492" class="cls-1" d="M80.62 43.063c-.049.1 0 .208-.044.3.086-.092.04-.2.044-.306" transform="translate(-32.881 -17.573)"/>
                <path id="Path_11493" data-name="Path 11493" class="cls-1" d="M80.573 43.369c.049-.1 0-.208.044-.3a.486.486 0 0 0-.044.3" transform="translate(-32.878 -17.574)"/>
                <path id="Path_11494" data-name="Path 11494" class="cls-1" d="M69.209 55.892c-.1.047-.213 0-.312.044.105 0 .218.043.312-.044" transform="translate(-28.115 -22.808)"/>
                <path id="Path_11495" data-name="Path 11495" class="cls-1" d="M68.9 55.933c.1-.047.213 0 .312-.044a.5.5 0 0 0-.312.044" transform="translate(-28.115 -22.805)"/>
                <path id="Path_11496" data-name="Path 11496" class="cls-1" d="M68.337 55.992c-.1.043-.213 0-.313.042.105 0 .218.042.313-.042" transform="translate(-27.759 -22.849)"/>
                <path id="Path_11497" data-name="Path 11497" class="cls-1" d="M68.024 56.031c.1-.046.213 0 .313-.042a.513.513 0 0 0-.313.042" transform="translate(-27.759 -22.845)"/>
                <path id="Path_11498" data-name="Path 11498" class="cls-1" d="M11.99 1.116c.1-.046.213 0 .313-.044-.106.005-.219-.043-.313.044" transform="translate(-4.893 -.434)"/>
                <path id="Path_11499" data-name="Path 11499" class="cls-1" d="M12.3 1.078c-.1.047-.213 0-.313.044a.506.506 0 0 0 .313-.044" transform="translate(-4.893 -.44)"/>
                <path id="Path_11500" data-name="Path 11500" class="cls-1" d="M68.024.975c.1.046.213 0 .313.042-.095-.084-.207-.037-.313-.042" transform="translate(-27.759 -.394)"/>
                <path id="Path_11501" data-name="Path 11501" class="cls-1" d="M68.337 1.023c-.1-.043-.213 0-.313-.042a.512.512 0 0 0 .313.042" transform="translate(-27.759 -.4)"/>
                <path id="Path_11502" data-name="Path 11502" class="cls-1" d="M12.862 1.017c.1-.043.213 0 .313-.042-.105 0-.218-.042-.313.042" transform="translate(-5.249 -.394)"/>
                <path id="Path_11503" data-name="Path 11503" class="cls-1" d="M13.175.981c-.1.046-.213 0-.313.042a.513.513 0 0 0 .313-.042" transform="translate(-5.249 -.4)"/>
            </g>
        </g>
    </g>
</svg>
