<svg xmlns="http://www.w3.org/2000/svg" width="100" height="100" viewBox="0 0 100 100">
    <defs>
        <style>
            .cls-2{fill:#9ca1b0}
        </style>
    </defs>
    <g id="section6_blog" transform="translate(-786 -3846)">
        <circle id="Ellipse_65559" data-name="Ellipse 65559" cx="50" cy="50" r="50" transform="translate(786 3846)" style="fill:#f5f7fd"/>
        <g id="Group_75759" data-name="Group 75759" transform="translate(814.771 3880.416)">
            <path id="Path_9405" data-name="Path 9405" class="cls-2" d="M1754.581 360.273a1.775 1.775 0 1 0 1.775 1.775 1.774 1.774 0 0 0-1.775-1.775z" transform="translate(-1718.71 -345.32)"/>
            <path id="Path_9406" data-name="Path 9406" class="cls-2" d="M1552.655 360.273a1.775 1.775 0 1 0 1.775 1.775 1.775 1.775 0 0 0-1.775-1.775z" transform="translate(-1527.422 -345.32)"/>
            <path id="Path_9407" data-name="Path 9407" class="cls-2" d="M1143.641 76.46h-30.865a7.138 7.138 0 0 0-7.126 7.151v16.964a7.138 7.138 0 0 0 7.126 7.151h10.631l3.629 5.908a1.315 1.315 0 0 0 .118.168 1.216 1.216 0 0 0 2.1.008.835.835 0 0 0 .122-.176l3.629-5.907h10.632a7.139 7.139 0 0 0 7.125-7.151V83.611a7.138 7.138 0 0 0-7.121-7.151zm-27.972 20.933a2.648 2.648 0 0 1-2.319-1.189v.9h-2.791V85.6h2.762v4.38a3.667 3.667 0 0 1 2.348-1.087c3.75 0 3.893 4.209 3.893 4.209a4.07 4.07 0 0 1-3.893 4.291zm8.7-7.729v7.442h-2.662v-6.813c0-2.348-1.261-2.29-1.261-2.29V85.34c4.041 0 3.926 4.323 3.926 4.323zm11.179 3.525c0 4.2-4.669 4.2-4.669 4.2-4.712 0-4.563-4.2-4.563-4.2 0-4.261 4.563-4.262 4.563-4.262 4.821-.001 4.673 4.261 4.673 4.261zm10.3 3.81a4.011 4.011 0 0 1-4.036 4.315h-1.073v-2.447h.665c1.954 0 1.76-2.018 1.76-2.018V96.2a3.161 3.161 0 0 1-2.426 1.052c-3.844 0-3.8-4.1-3.8-4.1 0-4.4 3.908-4.233 3.908-4.233a3.022 3.022 0 0 1 2.319 1.051v-.772h2.684z" transform="translate(-1105.65 -76.46)"/>
            <path id="Path_9408" data-name="Path 9408" class="cls-2" d="M1252.356 360.273a1.775 1.775 0 1 0 1.775 1.775 1.776 1.776 0 0 0-1.775-1.775z" transform="translate(-1242.945 -345.32)"/>
        </g>
    </g>
</svg>
